<?xml version="1.0" encoding="UTF-8" standalone="no"?>
<!-- Created with Inkscape (http://www.inkscape.org/) -->

<svg
   xmlns:dc="http://purl.org/dc/elements/1.1/"
   xmlns:cc="http://creativecommons.org/ns#"
   xmlns:rdf="http://www.w3.org/1999/02/22-rdf-syntax-ns#"
   xmlns:svg="http://www.w3.org/2000/svg"
   xmlns="http://www.w3.org/2000/svg"
   xmlns:sodipodi="http://sodipodi.sourceforge.net/DTD/sodipodi-0.dtd"
   xmlns:inkscape="http://www.inkscape.org/namespaces/inkscape"
   width="100mm"
   height="100mm"
   viewBox="0 0 100 100"
   version="1.1"
   id="svg8"
   inkscape:version="0.92.3 (2405546, 2018-03-11)"
   sodipodi:docname="favicon.svg">
  <defs
     id="defs2" />
  <sodipodi:namedview
     id="base"
     pagecolor="#ffffff"
     bordercolor="#666666"
     borderopacity="1.0"
     inkscape:pageopacity="0.0"
     inkscape:pageshadow="2"
     inkscape:zoom="0.7"
     inkscape:cx="133.98829"
     inkscape:cy="235.47302"
     inkscape:document-units="mm"
     inkscape:current-layer="layer1"
     showgrid="false"
     inkscape:window-width="1366"
     inkscape:window-height="741"
     inkscape:window-x="0"
     inkscape:window-y="27"
     inkscape:window-maximized="1" />
  <metadata
     id="metadata5">
    <rdf:RDF>
      <cc:Work
         rdf:about="">
        <dc:format>image/svg+xml</dc:format>
        <dc:type
           rdf:resource="http://purl.org/dc/dcmitype/StillImage" />
        <dc:title></dc:title>
      </cc:Work>
    </rdf:RDF>
  </metadata>
  <g
     inkscape:label="Layer 1"
     inkscape:groupmode="layer"
     id="layer1"
     transform="translate(0,-197)">
    <g
       id="g4674"
       transform="matrix(1.1345832,0,0,1.1345832,174.43398,184.00378)"
       style="stroke-width:0.88138092">
      <circle
         id="circle4569"
         cx="-109.67374"
         cy="55.52367"
         r="41.577381"
         style="fill:#132809;fill-opacity:1;stroke:#132809;stroke-width:4.98332739;stroke-miterlimit:4;stroke-dasharray:none;stroke-opacity:1" />
      <path
         inkscape:connector-curvature="0"
         id="circle4579"
         d="m -109.674,31.249744 a 24.324609,48.536133 0 0 0 -24.32429,48.536014 24.324609,48.536133 0 0 0 0.45029,9.108896 40.255544,40.161973 0 0 0 24.30129,8.206391 40.255544,40.161973 0 0 0 23.395686,-7.540997 24.324609,48.536133 0 0 0 0.501839,-9.77429 A 24.324609,48.536133 0 0 0 -109.674,31.249744 Z"
         style="fill:#e2df7c;fill-opacity:1;stroke:#132809;stroke-width:4.98332691;stroke-miterlimit:4;stroke-dasharray:none;stroke-opacity:1" />
      <path
         inkscape:connector-curvature="0"
         id="circle4574"
         d="m -109.66963,13.94629 a 41.577381,41.577381 0 0 0 -41.39593,37.956338 74.276047,74.276047 0 0 0 41.39593,12.640056 74.276047,74.276047 0 0 0 41.386624,-12.672094 41.577381,41.577381 0 0 0 -41.386624,-37.9243 z"
         style="fill:#e2df7c;fill-opacity:1;stroke:#132809;stroke-width:4.98332739;stroke-miterlimit:4;stroke-dasharray:none;stroke-opacity:1" />
      <g
         id="g4646"
         transform="matrix(0.32861797,0.15459838,-0.15459838,0.32861797,-15.649549,27.960351)"
         style="stroke-width:2.42692876">
        <path
           inkscape:connector-curvature="0"
           id="path4640"
           d="m -242.42451,90.048402 a 41.577381,41.577381 0 0 0 -20.69944,34.048128 41.577381,41.577381 0 0 0 39.79931,-0.96618 41.577381,41.577381 0 0 0 20.6999,-34.048395 41.577381,41.577381 0 0 0 -39.79977,0.966447 z"
           style="fill:#132809;fill-opacity:1;stroke:none;stroke-width:13.72185326;stroke-miterlimit:4;stroke-dasharray:none;stroke-opacity:1" />
        <path
           style="fill:#132809;fill-opacity:1;stroke:none;stroke-width:13.72185326;stroke-miterlimit:4;stroke-dasharray:none;stroke-opacity:1"
           d="m -221.68767,145.14708 a 41.577381,41.577381 0 0 0 19.13682,34.95031 41.577381,41.577381 0 0 0 19.06292,-34.95031 41.577381,41.577381 0 0 0 -19.13681,-34.95083 41.577381,41.577381 0 0 0 -19.06293,34.95083 z"
           id="path4642"
           inkscape:connector-curvature="0" />
        <path
           inkscape:connector-curvature="0"
           id="path4644"
           d="m -181.8879,123.06635 a 41.577381,41.577381 0 0 0 39.83627,0.90217 41.577381,41.577381 0 0 0 -20.7364,-33.984122 41.577381,41.577381 0 0 0 -39.83671,-0.902443 41.577381,41.577381 0 0 0 20.73684,33.984395 z"
           style="fill:#132809;fill-opacity:1;stroke:none;stroke-width:13.72185326;stroke-miterlimit:4;stroke-dasharray:none;stroke-opacity:1" />
      </g>
    </g>
  </g>
</svg>
