<?xml version="1.0" standalone="no"?>
<!DOCTYPE svg PUBLIC "-//W3C//DTD SVG 20010904//EN"
 "http://www.w3.org/TR/2001/REC-SVG-20010904/DTD/svg10.dtd">
<svg version="1.0" xmlns="http://www.w3.org/2000/svg"
 width="700.000000pt" height="700.000000pt" viewBox="0 0 700.000000 700.000000"
 preserveAspectRatio="xMidYMid meet">
<metadata>
Created by potrace 1.14, written by Peter Selinger 2001-2017
</metadata>
<g transform="translate(0.000000,700.000000) scale(0.100000,-0.100000)"
fill="#000000" stroke="none">
<path d="M3200 6990 c-203 -20 -339 -43 -538 -90 -118 -28 -446 -133 -467
-150 -5 -4 -21 -11 -35 -15 -42 -13 -324 -151 -395 -194 -37 -23 -69 -41 -72
-41 -8 0 -247 -162 -308 -209 -766 -591 -1242 -1420 -1362 -2376 -24 -194 -23
-675 2 -826 2 -13 6 -46 9 -74 9 -78 22 -152 51 -285 21 -96 91 -339 114 -395
5 -11 25 -65 46 -120 64 -170 213 -461 314 -615 271 -411 605 -747 1008 -1016
77 -52 145 -94 149 -94 4 0 15 -6 23 -14 29 -26 335 -175 471 -229 114 -46
338 -120 398 -132 9 -2 55 -12 102 -24 109 -26 200 -43 299 -57 25 -3 57 -8
71 -10 111 -19 586 -26 745 -12 868 78 1703 500 2285 1157 36 41 70 79 76 85
6 6 48 61 94 121 150 197 277 405 383 628 26 53 47 99 47 102 0 2 11 28 24 57
57 127 151 421 182 573 17 81 54 301 59 350 4 33 9 71 11 85 12 70 11 536 -2
668 -118 1221 -868 2291 -1977 2822 -322 154 -701 267 -1037 310 -47 6 -101
13 -120 16 -59 9 -570 12 -650 4z"/>
</g>
</svg>
